<?xml version="1.0" encoding="utf-8"?>
<!-- Generator: Adobe Illustrator 16.2.1, SVG Export Plug-In . SVG Version: 6.00 Build 0)  -->
<!DOCTYPE svg PUBLIC "-//W3C//DTD SVG 1.1//EN" "http://www.w3.org/Graphics/SVG/1.1/DTD/svg11.dtd">
<svg version="1.1" id="Layer_1" xmlns="http://www.w3.org/2000/svg" xmlns:xlink="http://www.w3.org/1999/xlink" x="0px" y="0px"
	 width="201.176px" height="30.98px" viewBox="0 0 201.176 30.98" enable-background="new 0 0 201.176 30.98" xml:space="preserve">
<g>
	<path d="M29.952,11.865c-0.965-0.538-2.184-0.189-2.719,0.777c-0.672,1.208-1.229,2.411-1.768,3.575
		c-1.452,3.134-2.706,5.841-5.712,7.582c-0.591,0.37-0.99,0.552-1.239,0.641c-0.168-0.735-0.182-2.218-0.19-3.168
		c-0.013-1.345-0.025-2.735-0.241-4.026c-0.11-0.663-0.547-1.228-1.162-1.5c-0.616-0.272-1.326-0.218-1.892,0.146
		c-1.633,1.05-2.706,2.739-3.744,4.371c-1.809,2.846-2.732,3.962-4.566,3.547c-2.298-0.605-2.564-4.342-2.648-8.448
		c-0.016-0.781-0.032-1.504-0.073-2.127c-0.074-1.103-1.038-1.936-2.128-1.863c-1.103,0.074-1.936,1.026-1.863,2.129
		c0.038,0.569,0.051,1.23,0.065,1.943c0.088,4.306,0.222,10.812,5.695,12.25c4.557,1.036,6.898-2.174,8.585-4.802
		c0.08,2.275,0.418,4.271,2.152,5.222c0.544,0.298,1.109,0.419,1.669,0.419c1.354,0,2.683-0.705,3.642-1.306
		c4.042-2.34,5.688-5.892,7.28-9.327c0.509-1.098,1.035-2.233,1.635-3.314C31.265,13.619,30.917,12.401,29.952,11.865z"/>
	<path d="M51.171,12.215c-0.698-0.492-1.604-0.473-2.271-0.021c-0.224-0.071-0.463-0.101-0.712-0.093
		c-4.035,0.202-8.437,3.707-9.612,7.654c-0.849,2.852,0.097,5.53,2.522,7.292c1.35,1.08,2.864,1.629,4.426,1.629
		c0.922-0.001,1.861-0.191,2.792-0.577c3.216-1.333,5.744-4.812,6.147-8.458C54.795,16.628,53.596,13.922,51.171,12.215z
		 M50.486,19.201c-0.242,2.19-1.834,4.428-3.703,5.202c-1.146,0.476-2.189,0.318-3.26-0.536c-1.137-0.826-1.48-1.743-1.115-2.971
		c0.687-2.306,3.648-4.684,5.979-4.8c0.332-0.017,0.641-0.113,0.909-0.27C50.24,16.677,50.64,17.81,50.486,19.201z"/>
	<path d="M76.41,10.834c-0.948-0.475-2.094-0.125-2.621,0.779c-0.051,0.008-0.184,0.006-0.276,0.019
		c-4.236,0.577-8.406,4.484-9.107,8.532c-0.533,3.078,0.925,5.759,3.967,7.336c1.504,0.816,3.03,1.225,4.507,1.225
		c1.486,0,2.923-0.413,4.239-1.24c2.833-1.779,4.62-5.347,4.448-8.876C81.401,15.224,79.521,12.391,76.41,10.834z M74.99,24.098
		c-1.364,0.858-2.993,0.819-4.743-0.131c-2.008-1.041-2.046-2.279-1.9-3.121c0.408-2.354,3.181-4.906,5.706-5.25
		c0.539-0.073,0.998-0.354,1.308-0.752c1.703,1.155,2.152,2.755,2.211,3.959C77.673,20.901,76.611,23.078,74.99,24.098z"/>
	<path d="M112.347,0.135c-1.028-0.397-2.188,0.113-2.587,1.143c-1.304,3.368-1.886,7.3-2.142,11.335
		c-3.429-0.81-7.813-0.541-10.756,1.378c-2.33,1.519-3.502,3.904-3.297,6.772c0.368,3.682,4.381,5.994,8.194,6.654
		c0.838,0.146,1.652,0.216,2.43,0.216c1.177,0,2.265-0.172,3.242-0.48c-0.007,0.602-0.017,1.193-0.034,1.767
		c-0.033,1.104,0.834,2.025,1.938,2.06c0.021,0,0.041,0.001,0.062,0.001c1.076,0,1.965-0.856,1.998-1.939
		c0.049-1.604,0.048-3.314,0.041-5.085c0.01-0.021,0.025-0.039,0.035-0.061c0.278-0.588,0.238-1.24-0.04-1.776
		c-0.032-6.653-0.007-14.062,2.059-19.397C113.889,1.692,113.377,0.534,112.347,0.135z M102.442,23.477
		c-2.617-0.452-4.767-1.819-4.891-3.055c-0.099-1.371,0.377-2.35,1.495-3.079c2.117-1.379,5.945-1.429,8.41-0.631
		c-0.039,2.03-0.031,4.049-0.021,5.997C106.524,23.521,104.593,23.848,102.442,23.477z"/>
	<path d="M132.596,6.501c0.004-1.186,0.01-2.361,0.01-3.521c0-1.104-0.896-2-2-2c-1.105,0-2,0.896-2,2
		c0,1.155-0.006,2.324-0.01,3.504c-0.031,7.315-0.064,14.879,1.021,22.043c0.15,0.99,1.004,1.7,1.975,1.7
		c0.102,0,0.201-0.008,0.303-0.022c1.092-0.166,1.844-1.186,1.678-2.277C132.534,21.07,132.565,13.664,132.596,6.501z"/>
	<path d="M200.286,9.722c-0.92-0.615-2.16-0.364-2.773,0.554c-1.08,1.621-2.029,3.824-3.033,6.157
		c-1.121,2.606-2.455,5.704-3.846,7.377c-1.924-3.259-3.242-8.43-3.436-12.072c-0.059-1.104-1.002-1.955-2.102-1.892
		c-1.104,0.058-1.951,1-1.893,2.103c0.211,3.99,1.895,11.875,5.512,16.047c0.389,0.449,0.945,0.69,1.512,0.69
		c0.285,0,0.572-0.061,0.844-0.187c3.213-1.496,5.18-6.065,7.082-10.484c0.93-2.161,1.809-4.201,2.688-5.519
		C201.454,11.577,201.206,10.334,200.286,9.722z"/>
	<path d="M167.956,16.729c0.092-1.292,0.18-2.513,0.18-3.611c0-1.104-0.896-2-2-2c-1.105,0-2,0.896-2,2
		c0,3.768-1.779,9.044-4.756,11.352c-1.395,1.081-2.893,1.396-4.648,0.947c-3.305-0.734-3.291-4.954-2.93-10.394
		c0.043-0.639,0.082-1.248,0.109-1.814c0.049-1.103-0.805-2.039-1.908-2.089c-1.098-0.055-2.037,0.803-2.088,1.907
		c-0.025,0.54-0.064,1.121-0.104,1.73c-0.324,4.872-0.865,13.026,5.988,14.548c2.883,0.741,5.662,0.163,8.031-1.675
		c0.85-0.658,1.617-1.456,2.297-2.351c0.34,1.65,0.951,3.186,1.998,4.456c0.395,0.48,0.967,0.729,1.545,0.729
		c0.447,0,0.896-0.149,1.27-0.456c0.854-0.702,0.975-1.962,0.273-2.815C167.37,24.956,167.696,20.395,167.956,16.729z"/>
</g>
</svg>
