<?xml version="1.0" standalone="no"?>
<!DOCTYPE svg PUBLIC "-//W3C//DTD SVG 1.1//EN" "http://www.w3.org/Graphics/SVG/1.1/DTD/svg11.dtd" >
<svg xmlns="http://www.w3.org/2000/svg">
<metadata></metadata>
<defs>
<font id="bookmateregular" horiz-adv-x="1431" >
<font-face units-per-em="2048" ascent="1536" descent="-512" />
<missing-glyph horiz-adv-x="1024" />
<glyph horiz-adv-x="0" />
<glyph unicode="&#xd;" horiz-adv-x="1024" />
<glyph horiz-adv-x="0" />
<glyph horiz-adv-x="0" />
<glyph unicode=" "  horiz-adv-x="1024" />
<glyph unicode="&#x09;" horiz-adv-x="1024" />
<glyph unicode="&#xa0;" horiz-adv-x="1024" />
<glyph unicode="&#x3c;" horiz-adv-x="471" d="M449 0q-12 0 -19 12q-109 172 -181.5 291t-120.5 195.5t-73.5 120t-38 63.5t-14.5 24.5t-2 6.5t2 7t14.5 26.5t38 64.5t73.5 121t122 196.5t182 290.5q8 14 27 8q10 -10 6 -26q-39 -63 -84 -134t-89 -142.5t-86 -139t-77 -123t-58.5 -95.5t-31.5 -54q12 -20 58 -94 t107.5 -173.5t130 -211t128.5 -205.5q6 -14 -4 -25q-4 -4 -10 -4z" />
<glyph unicode="=" horiz-adv-x="1650" d="M96 821q-39 0 -66.5 31t-27.5 70q0 41 27.5 71.5t66.5 30.5h1454q41 0 69 -30.5t28 -71.5q0 -39 -28 -70t-69 -31h-1454zM1550 614q41 0 69 -32.5t28 -73.5t-28 -68.5t-69 -27.5h-1454q-39 0 -66.5 27.5t-27.5 68.5t27.5 73.5t66.5 32.5h1454zM1550 201q41 0 69 -33 t28 -74t-28 -67.5t-69 -26.5h-1454q-39 0 -66.5 26.5t-27.5 67.5t27.5 74t66.5 33h1454z" />
<glyph unicode="&#x3e;" horiz-adv-x="477" d="M23 1434q12 0 18 -13q106 -172 180 -290.5t122 -195.5t73.5 -120t38 -63.5t14.5 -25.5l2 -5q0 -2 -2 -7t-14.5 -26.5t-38 -64.5t-73.5 -121t-122 -197t-182 -291q-8 -14 -27 -8q-10 10 -6 27q59 94 129 204.5t131.5 211t107.5 175t58 97.5q-12 20 -58 94t-107.5 173 t-131 210t-127.5 207q-6 14 4 25q5 4 11 4z" />
<glyph unicode="B" horiz-adv-x="12881" d="M2077 1448q160 0 298 -57.5t238.5 -155.5t157.5 -230.5t57 -279.5q0 -154 -57 -289t-157.5 -235.5t-239 -158.5t-297.5 -58q-162 0 -298.5 58t-234.5 158.5t-153.5 235.5t-55.5 289q0 147 55.5 279.5t153.5 230.5t234.5 155.5t298.5 57.5zM2077 176q115 0 212 42 t167.5 116t109.5 174t39 217q0 115 -39 212t-109.5 168t-168 110.5t-211.5 39.5q-117 0 -213.5 -42t-164 -115.5t-104 -173t-36.5 -213.5q0 -111 36.5 -208t104 -170t164 -115t213.5 -42zM565 760q129 -27 210 -108t81 -236q0 -96 -40 -173t-110.5 -130.5t-170 -82 t-216.5 -28.5h-323v1428h295q82 0 158.5 -23t136 -70t94.5 -118.5t35 -167.5q0 -104 -38 -178t-112 -113zM203 811h88q98 0 159.5 60.5t61.5 160.5q0 45 -16.5 86t-45 72t-69.5 48t-90 17h-88v-444zM342 190q143 0 217 67t74 159q0 104 -66.5 162.5t-208.5 58.5h-155v-447 h139zM4035 1448q166 0 305 -57.5t238.5 -155.5t155.5 -230.5t56 -279.5q0 -154 -56 -289t-155.5 -235.5t-239 -158.5t-304.5 -58q-162 0 -298.5 58t-234.5 158.5t-153.5 235.5t-55.5 289q0 147 55.5 279.5t153.5 230.5t234.5 155.5t298.5 57.5zM4035 176q115 0 213 42 t168.5 116t110.5 174t40 217q0 115 -40 212t-110.5 168t-169 110.5t-212.5 39.5q-111 0 -205 -42t-165 -115.5t-111 -173t-40 -213.5q0 -111 40 -208t111 -170t165 -115t205 -42zM12313 1255v-409h499v-189h-499v-467h565v-188h-791v1428h791v-175h-565zM9701 1516 l670 -1514h-242l-137 313h-633l-139 -313h-223zM9927 506l-244 526l-238 -526h482zM10664 1430h858v-189h-324v-1239h-206v1239h-328v189zM8262 1499l254 -1497h-222l-139 860l-412 -893h-16l-395 893l-158 -860h-221l291 1497h16l483 -1065l480 1065h39zM5802 797l637 -795 h-275l-518 635l-49 -33v-602h-205v1428h205v-584l567 584h275z" />
<glyph unicode="C" horiz-adv-x="2467" d="M2447 1178l-1153 -1153q-25 -25 -57 -25q-35 0 -59 25l-1153 1153q-25 25 -25 57q0 33 25 57l125 123q23 27 57 27q35 0 57 -27l973 -973l971 973q27 27 55 27q37 0 59 -27l125 -123q10 -10 16.5 -26.5t6.5 -30.5t-6.5 -30.5t-16.5 -26.5z" />
<glyph unicode="D" horiz-adv-x="1204" d="M977 -494l-957 957q-20 25 -20 49q0 29 20 49l957 957q20 20 47 20q29 0 49 -20l101 -103q23 -18 22 -49q0 -12 -6 -25.5t-16 -21.5l-807 -807l807 -807q23 -18 22 -45q0 -29 -22 -51l-101 -103q-23 -18 -49 -18q-24 0 -47 18z" />
<glyph unicode="E" horiz-adv-x="2076" d="M1049 1245q-262 0 -484.5 -138t-363.5 -388q70 -125 162 -224.5t199.5 -168t229 -105.5t252.5 -37q129 0 250 37t228.5 105.5t198.5 168t161 224.5q-68 125 -158 222t-197.5 165t-229 103.5t-248.5 35.5zM1049 1432q160 0 309 -45.5t280 -130.5t239 -206.5t185 -277.5 q23 -49 0 -106q-80 -156 -188.5 -279t-239.5 -209t-280.5 -132t-309.5 -46t-309 46t-281 132t-243 209t-191 279q-33 57 0 106q80 156 191 277.5t243 206.5t282.5 130.5t312.5 45.5zM1038 440q-53 0 -100 21.5t-83 59.5t-57.5 88t-21.5 108q0 53 21.5 103t57.5 88t83 60.5 t100 22.5q55 0 103.5 -22.5t84.5 -60.5t56.5 -88t20.5 -103q0 -57 -20.5 -107.5t-56.5 -88.5t-84.5 -59.5t-103.5 -21.5zM1038 799q-33 0 -52 -24.5t-19 -57.5q0 -39 19.5 -62.5t51.5 -23.5q35 0 59.5 23.5t24.5 62.5q0 33 -24.5 57.5t-59.5 24.5z" />
<glyph unicode="F" d="M1354 1432q33 0 55.5 -23t22.5 -55v-1276q0 -33 -23 -55.5t-55 -22.5h-365v555h187l26 215h-213v139q0 47 19.5 77t87.5 30h112v190q-14 2 -60 5t-106 3q-125 0 -201.5 -71.5t-76.5 -212.5v-160h-184v-215h184v-555h-686q-33 0 -55.5 22.5t-22.5 55.5v1276 q0 33 22.5 55.5t55.5 22.5h1118h158z" />
<glyph unicode="L" horiz-adv-x="1171" d="M975 911q84 0 140 -56t56 -140v-520q0 -84 -56 -140.5t-140 -56.5h-782q-82 0 -138.5 56.5t-56.5 140.5v520q0 84 56.5 140t138.5 56v195q0 70 25.5 129t70.5 103t104.5 70t126.5 26h131q68 0 127.5 -26t102.5 -69t68.5 -102t25.5 -127v-199zM322 911h524v199 q0 39 -15.5 75t-42 62.5t-62.5 42t-75 15.5h-131q-41 0 -76.5 -15.5t-62.5 -43t-43 -63.5t-16 -77v-195zM1040 715q0 29 -18 47t-47 18h-782q-27 0 -45.5 -18.5t-18.5 -46.5v-520q0 -29 18.5 -47.5t45.5 -18.5h782q29 0 47 18.5t18 47.5v520z" />
<glyph unicode="M" horiz-adv-x="1433" d="M1217 1434q45 0 83.5 -17.5t68.5 -47.5t47.5 -68.5t17.5 -83.5v-1143q0 -23 -10.5 -39.5t-27 -24.5t-36 -8t-37.5 12l-604 402l-608 -402q-18 -12 -38 -12t-36.5 8t-26.5 24.5t-10 39.5v1143q0 45 16.5 83.5t46 68.5t68.5 47.5t84 17.5h1002zM678 563q39 23 76 0 l536 -356v1010q0 33 -21.5 53t-51.5 20h-1002q-31 0 -50.5 -20.5t-19.5 -52.5v-1010z" />
<glyph unicode="O" d="M713 1434q150 0 280.5 -56.5t229 -155t155 -229.5t56.5 -280q0 -147 -56.5 -276.5t-155 -226.5t-229.5 -153.5t-280 -56.5q-147 0 -276.5 56.5t-226.5 153.5t-153.5 226t-56.5 277q0 150 56.5 280.5t153.5 229t226.5 155t276.5 56.5zM713 72q135 0 253.5 50t206 138 t138.5 204t51 249q0 135 -51 253.5t-138.5 206t-206 138.5t-253.5 51q-133 0 -249 -51t-204 -138.5t-138 -206t-50 -253.5q0 -133 50 -249t138 -204t204 -138t249 -50zM1040 942q16 14 33 14t27 -14q16 -10 16 -30.5t-16 -30.5l-420 -422q-4 -10 -13.5 -11.5t-13.5 -1.5 q-10 0 -19 1.5t-13 11.5l-240 241q-10 10 -10 27.5t10 34.5q14 10 31.5 10t27.5 -10l213 -215z" />
<glyph unicode="P" horiz-adv-x="1435" d="M160 393l231 -235l-362 -150q-12 -12 -27 -4q-8 14 4 27l150 362h4zM1413 1266q16 -16 16.5 -39t-16.5 -39l-983 -983l-227 227l983 983q16 16 37.5 16.5t36.5 -16.5z" />
<glyph unicode="S" horiz-adv-x="1435" d="M911 1278q78 -78 117 -176t39 -200.5t-39 -201t-117 -176.5q-76 -78 -173 -116.5t-206 -38.5q-106 0 -203.5 38.5t-172.5 116.5q-76 76 -116 173.5t-40 203.5t40 202.5t116 174.5q76 76 173 116t203 40q109 0 205 -40t174 -116zM793 641q53 53 79.5 120.5t26.5 138.5 t-26.5 138.5t-79.5 120.5t-120 80t-141 27q-152 0 -258 -107q-53 -51 -79.5 -118.5t-26.5 -139.5q0 -74 26.5 -140.5t79.5 -119.5q53 -51 119 -78.5t139 -27.5q74 0 141 27.5t120 78.5zM1409 141l-336 338q-25 25 -59.5 25t-59.5 -25t-24.5 -59.5t24.5 -59.5l336 -335 q25 -25 62 -25q33 0 57 25q25 25 25 59t-25 57z" />
<glyph unicode="T" horiz-adv-x="1767" d="M1761 1266q-35 -55 -80 -104.5t-98 -86.5v-47q0 -119 -29.5 -241.5t-89 -236.5t-146.5 -214t-202 -175t-255 -118t-306 -43q-156 0 -295 42t-260 122q20 -4 41.5 -6t44.5 -2q125 0 240.5 41t208.5 114q-59 0 -113.5 19.5t-98.5 53.5t-78 80t-50 99q16 -4 33.5 -6t35.5 -2 q23 0 48.5 5t47.5 9q-61 12 -114 45t-92 80t-61.5 105.5t-22.5 124.5v4q70 -43 163 -43q-74 49 -116.5 127t-42.5 172q0 104 47 182q135 -164 327.5 -264.5t415.5 -112.5q-2 20 -4 41t-2 41q0 76 28.5 141.5t78 114.5t115 77t139.5 28q78 0 145.5 -30t118.5 -83 q125 25 231 90q-20 -66 -61 -118t-97 -85q53 6 104.5 20.5t100.5 39.5z" />
<glyph unicode="U" horiz-adv-x="1179" d="M590 743q-70 0 -132.5 28t-109.5 75t-74.5 109.5t-27.5 131.5q0 76 27.5 139.5t74.5 109.5t109.5 72t132.5 26t131 -26t108.5 -72t75 -109.5t27.5 -139.5q0 -70 -27.5 -132t-75 -109t-108.5 -75t-131 -28zM1176 0h-1174v74q0 123 47 229.5t128 185t187.5 123.5t225.5 45 q123 0 229.5 -45t186 -123.5t125 -185t45.5 -229.5v-74z" />
<glyph unicode="V" horiz-adv-x="2521" d="M2322 948q-66 -84 -110.5 -140t-70 -96t-32 -68t7 -55.5t46 -60t84.5 -79.5q76 -72 124 -124.5t75.5 -87t39 -53t13.5 -22.5q23 -43 20 -76q-2 -29 -25.5 -51.5t-89.5 -22.5l-336 -6q-29 -6 -56 1t-52 18q-29 12 -55 30q-47 33 -93.5 85.5t-88.5 99.5t-80.5 76.5 t-73.5 21.5q-27 -10 -47 -39q-18 -25 -32.5 -71t-14.5 -122q2 -16 0 -29.5t-7 -21.5q-4 -10 -10 -16q-8 -4 -18 -10q-10 -4 -22.5 -9.5t-31.5 -7.5h-147q-61 -4 -121.5 5.5t-116 29t-105.5 45t-93 53.5q-100 66 -189 150q-94 102 -194 248q-86 123 -192.5 308t-213.5 433 q-12 27 -4 45q4 8 10 17q6 6 15 12q8 4 21.5 9t35.5 5h357q12 -4 23 -6t22 -6q10 -4 18 -8q2 -4 8 -13q4 -6 8 -15t9 -19q23 -53 47 -102.5t45 -90.5q23 -47 47 -88q47 -98 89 -159.5t75.5 -92.5t59.5 -37t44 4q20 16 33 62q10 39 17 111.5t1 195.5q-4 43 -10 74.5t-10 54.5 q-8 25 -12 41q-27 29 -62 40t-53 15q-6 0 -4 8.5t11 20.5t22.5 24.5t29.5 20.5q47 20 129 25.5t181 1.5q76 0 111.5 -5.5t64.5 -13.5q47 -10 65.5 -36.5t22.5 -77t-1 -125t-5 -177.5q0 -33 -2.5 -71.5t1 -74.5t14.5 -64.5t36 -43.5q10 -8 28.5 -6t49 30t75.5 88.5t107 166.5 q25 41 49 88q23 41 47.5 93t48.5 112q4 10 9.5 18t9.5 15q6 8 12 12q6 2 14 4q12 4 35 0h373q43 6 69.5 2t40.5 -12q16 -8 25 -23q16 -41 -31 -136t-164 -249z" />
<glyph unicode="X" horiz-adv-x="1429" d="M1399 158q29 -23 28.5 -60t-28.5 -65q-25 -25 -60.5 -25t-60.5 25l-559 559l-557 -559q-29 -25 -66 -25t-61 25q-29 29 -29 63.5t29 61.5l555 563l-555 553q-29 29 -29 64.5t29 62.5q25 27 61.5 26.5t65.5 -26.5l557 -559l559 559q25 27 60.5 26.5t60.5 -26.5 q29 -27 28.5 -62.5t-28.5 -64.5l-555 -553l555 -563v0z" />
<glyph unicode="b" horiz-adv-x="1705" d="M983 512h-100v-102h-584v-101h-100v101h-90v-299h383v202h100v-204h-96v-105h-392v105h-100v305h100v100h95v299h-90v-100h-105v106h100v101h95v299h-95v104h99v-100h94v100h195v104h391l2 -104h98v-307h-100v-96h100v-408zM492 920v299h-95v-299h95zM492 514v299h-95 v-299h95zM784 1321h-192v-299h192v299zM784 918h-192v-404h192v404z" />
<glyph unicode="c" horiz-adv-x="2473" d="M27 264l1153 1153q25 25 57 25q35 0 59 -25l1153 -1153q25 -25 25 -57q0 -33 -25 -57l-125 -123q-23 -27 -57 -27q-35 0 -57 27l-973 972l-971 -972q-27 -27 -55 -27q-37 0 -59 27l-125 123q-10 10 -16.5 26.5t-6.5 30.5t6.5 30.5t16.5 26.5z" />
<glyph unicode="d" horiz-adv-x="1208" d="M227 1513l957 -956q20 -25 20 -49q0 -29 -20 -49l-957 -957q-20 -20 -47 -20q-29 0 -49 20l-100 103q-23 18 -23 49q0 12 6 25.5t17 21.5l807 807l-807 807q-23 18 -23 45q0 29 23 51l100 102q23 18 49 19q24 -1 47 -19z" />
<glyph unicode="e" horiz-adv-x="2148" d="M2134 770q20 -49 0 -98q-82 -156 -195.5 -279t-250 -209t-291 -131t-320.5 -45q-125 0 -243.5 27.5t-229.5 77.5l-332 -332q-25 -25 -63 -25q-39 0 -66 25q-29 29 -28.5 67.5t28.5 67.5l289 289q-127 86 -231.5 202.5t-182.5 264.5q-27 49 0 98q84 154 198 274.5 t251 205.5t291.5 129t320.5 44q125 0 244 -26.5t229 -73.5l324 324q29 29 66.5 28.5t66.5 -28.5q27 -25 27 -65t-27 -69l-285 -284q125 -84 229.5 -199t180.5 -260zM205 719q72 -119 163 -215t201 -164l262 264q-25 51 -24 111q0 55 21.5 104t57.5 86t85 58.5t104 21.5 q66 0 113 -27l221 222q-158 55 -330 55q-133 0 -260 -35t-238.5 -101.5t-207.5 -161.5t-168 -218zM1077 197q133 0 259 35.5t238 102t206 164t166 220.5q-137 242 -361 373l-264 -263q10 -27 17.5 -54t7.5 -60q0 -55 -20.5 -104.5t-57.5 -86.5t-86 -58.5t-107 -21.5 q-29 0 -57.5 7.5t-56.5 17.5l-213 -215q157 -57 329 -57z" />
<glyph unicode="f" horiz-adv-x="1429" d="M1374 1294q16 -4 34.5 -26.5t21.5 -44.5v-6v-5v-6q-14 -74 -34 -159.5t-56.5 -163.5t-98 -136.5t-158.5 -78.5q-90 -18 -178 0q-29 6 -53.5 20t-49 28.5t-50 25t-56.5 10.5q-113 -4 -216 -59.5t-165 -141.5q-4 0 -4 -4q35 -111 71 -234t71 -235q8 -29 -7.5 -49.5 t-39 -26.5t-49 4t-33.5 39q-41 127 -80 261t-80 259q-41 129 -80 254t-80 252q-4 10 -3 19.5t3 17.5q0 12 6 29q43 88 117 155.5t164 104.5t191.5 33.5t197.5 -56.5q43 -23 80 -53.5t71.5 -63t72.5 -63.5t81 -55q45 -25 97.5 -31t98.5 5t79.5 42t42.5 82q4 27 16 46.5 t35 14.5q8 0 12 -2q2 0 3 -1t5 -1zM1188 887q16 29 27.5 62.5t21.5 62.5q-78 -29 -167 -26t-161 52q-41 25 -75.5 57.5t-70.5 65.5t-73 62.5t-80 50.5q-74 33 -145.5 33t-133 -27t-112.5 -76t-86 -112q33 -102 66.5 -200.5t64.5 -199.5q49 47 109.5 87t128 66.5t138.5 34 t136 -11.5q27 -8 53.5 -23.5t54 -30.5t55.5 -25.5t56 -8.5q59 6 110.5 33t82.5 74z" />
<glyph unicode="o" horiz-adv-x="745" d="M670 498q16 14 32.5 14t26.5 -14q16 -10 16 -31t-16 -31l-420 -422q-4 -10 -13 -11t-13 -1q-10 0 -19.5 1t-13.5 11l-240 242q-10 10 -10 27.5t10 33.5q14 10 31.5 10.5t28.5 -10.5l213 -215l387 396v0z" />
<glyph unicode="p" horiz-adv-x="1988" d="M1769 0h-1552q-45 0 -84 17.5t-68.5 49t-47 74.5t-17.5 97v958q0 51 17.5 95t47 76t68.5 49.5t84 17.5h1552q43 0 82 -17.5t68 -49.5t46 -76t17 -95v-958q0 -53 -17 -96.5t-46 -75t-68 -49t-82 -17.5zM217 1294q-31 0 -54.5 -25.5t-23.5 -72.5v-958q0 -47 23.5 -73 t54.5 -26h1552q41 0 58.5 25.5t17.5 73.5v958q0 47 -17.5 72.5t-58.5 25.5h-1552zM1313 668l317 -430h-1315l549 686l332 -432zM1491 942q59 0 99 -28.5t40 -88.5q0 -45 -40 -81.5t-99 -36.5q-43 0 -80 36.5t-37 81.5q0 59 37 88t80 29z" />
<glyph unicode="t" horiz-adv-x="1058" d="M1061 1186v-117h-96l-45 -1063h-781l-43 1063h-98v117h1063zM338 956h-86l16 -751h70v751zM565 956h-71v-751h71v751zM807 956h-84v-751h70zM1006 1341v-120h-951v120h367v86h213v-86h371z" />
<glyph unicode="u" horiz-adv-x="1427" d="M707 1432q152 0 283.5 -55.5t229 -153t152.5 -229.5t55 -283q0 -147 -55 -276.5t-152.5 -225.5t-229.5 -151.5t-283 -55.5q-147 0 -276.5 55.5t-225.5 151.5t-151.5 225t-55.5 277q0 152 55.5 283.5t151.5 229t225.5 153t276.5 55.5zM1112 793h-324v487h-151v-639h475 v152z" />
<glyph unicode="v" d="M821 655q29 -12 47 -32q16 -27 17 -60q0 -33 -15 -55q-14 -25 -41 -37q-31 -10 -63 -14h-113h-10v207h37h90q16 0 28.5 -2.5t22.5 -6.5zM743 807q-10 -2 -28.5 -2h-46.5h-25v176h14h84q14 -2 26.5 -4t23.5 -8q23 -12 30 -29q10 -18 10 -43q0 -29 -8 -47q-8 -16 -35 -31 q-25 -12 -45 -12zM1151 1432q57 0 108.5 -23t89 -60.5t60.5 -89t23 -108.5v-872q0 -57 -23 -108.5t-60.5 -89.5t-89 -60.5t-108.5 -22.5h-870q-59 0 -110.5 22.5t-89.5 60.5t-60.5 89t-22.5 109v872q0 57 22.5 108.5t60.5 89t89 60.5t111 23h870zM1075 449q23 51 23 110 q0 86 -45 133q-45 49 -125 66v6q53 20 86 67q29 47 28 109q0 53 -20 92q-23 43 -66 64q-49 27 -90 28q-41 8 -137 9h-293v-828h330q92 0 143 14q59 16 103 54q38 31 63 76z" />
<glyph unicode="x" horiz-adv-x="1441" d="M1368 782q29 0 48.5 -18.5t19.5 -46.5q0 -27 -19.5 -45.5t-48.5 -18.5h-586v-585q0 -29 -18.5 -48.5t-46.5 -19.5q-29 0 -48.5 19.5t-19.5 48.5v585h-586q-29 0 -46 18.5t-17 47.5t17.5 46t45.5 17h586v586q0 29 19.5 48.5t48.5 19.5t47 -19.5t18 -48.5v-586h586v0z" />
<glyph unicode="&#x2000;" horiz-adv-x="837" />
<glyph unicode="&#x2001;" horiz-adv-x="1675" />
<glyph unicode="&#x2002;" horiz-adv-x="837" />
<glyph unicode="&#x2003;" horiz-adv-x="1675" />
<glyph unicode="&#x2004;" horiz-adv-x="558" />
<glyph unicode="&#x2005;" horiz-adv-x="418" />
<glyph unicode="&#x2006;" horiz-adv-x="279" />
<glyph unicode="&#x2007;" horiz-adv-x="279" />
<glyph unicode="&#x2008;" horiz-adv-x="209" />
<glyph unicode="&#x2009;" horiz-adv-x="335" />
<glyph unicode="&#x200a;" horiz-adv-x="93" />
<glyph unicode="&#x202f;" horiz-adv-x="335" />
<glyph unicode="&#x205f;" horiz-adv-x="418" />
<glyph unicode="&#x25fc;" horiz-adv-x="1433" d="M0 1434h1434v-1434h-1434v1434z" />
</font>
</defs>
</svg>
